<?xml version="1.0" encoding="UTF-8"?>
<svg id="Layer_1" data-name="Layer 1" xmlns="http://www.w3.org/2000/svg" viewBox="0 0 1604.7 405.99">
  <defs>
    <style>
      .cls-1 {
        font-family: AvenirLTStd-Light, 'Avenir LT Std';
        font-size: 78px;
        font-weight: 300;
      }

      .cls-1, .cls-2 {
        fill: #333f54;
      }

      .cls-3 {
        fill: #313d53;
      }

      .cls-3, .cls-4, .cls-2 {
        stroke-width: 0px;
      }

      .cls-5 {
        letter-spacing: .16em;
      }

      .cls-4 {
        fill: #ea6d47;
      }

      .cls-6 {
        letter-spacing: .16em;
      }

      .cls-7 {
        letter-spacing: .17em;
      }
    </style>
  </defs>
  <g>
    <path class="cls-4" d="M1524.67,11.98c-26.91-9.35-55.84-2.71-69.26,29.59-7.52,18.1-6.92,37.41-7.15,56.53-.03,2.19,1.29,2.34,2.93,2.33,24.14-.14,48.29.26,72.43-.53,16.31-.53,32.59-1.48,48.77-3.6,4.16-.55,3.73,1.87,3.73,4.44-.02,27.61-.01,55.23-.01,82.84,0,25.45-.02,50.9.03,76.36,0,3.48.14,7,.66,10.44,1.89,12.38,6.23,16.46,18.78,18.01,3.05.38,6.37,0,5.79,5.03-.33,2.89-1.2,3.58-3.94,3.48-12.81-.46-25.64-.51-38.44-1.13-20.99-1.01-41.92.46-62.88.82-1.66.03-3.32.23-4.98.2-2.09-.04-4.86,1.24-4.86-2.85,0-3.1.12-5.02,4.15-5.53,10.87-1.38,14.32-4.86,16.29-15.62.62-3.41.75-6.94.75-10.42.05-40.76.03-81.51.03-122.27,0-5.67-.45-11.27-2.11-16.75-2.91-9.64-8.72-14.6-18.8-14.9-11.65-.34-23.32-.01-34.97-.23-3.76-.07-3.37,2.12-3.37,4.5.02,23.12,0,46.25,0,69.37,0,26.45-.02,52.9.03,79.35,0,2.98.12,6.01.69,8.92,2.11,10.94,8.07,16.33,19.23,17.75,1.32.17,2.65.48,3.97.43,3.73-.16,5.28,1.19,4.99,5.21-.35,4.72-3.63,3.07-5.85,2.99-21.12-.73-42.25-1.5-63.39-1.24-16.14.2-32.27.95-48.41,1.33-1.96.05-4.98,1.53-5.11-2.58-.1-3.17-.36-6.22,4.33-5.69.64.07,1.32-.15,1.98-.22,12.09-1.36,17.36-6.67,18.56-18.87.28-2.81.31-5.65.31-8.47.02-49.07-.04-98.15.11-147.22.01-4.22-.79-5.94-5.4-5.59-5.8.44-11.66-.08-17.48.17-3.52.15-3.54-1.72-3.64-4.32-.11-2.86.92-3.73,3.72-3.66,6.32.17,12.66-.05,18.99.1,2.68.07,3.69-.59,3.81-3.53.73-17.37,4.79-33.84,14-48.81,14.68-23.87,35.85-38.3,63.32-43.69,28.96-5.69,57.87-6.88,86.34,2.28,11.08,3.57,21.56,8.53,29.11,18.31,11.91,15.44,9.47,44.13-18.18,49.66-14.59,2.92-29.19,3.37-43.26-2.15-21.43-8.41-25.34-35.79-7.5-50.31,6.08-4.95,13.24-7.52,21.16-10.26Z"/>
    <path class="cls-3" d="M610.69,122.04c4.48-5.58,8.09-10.06,12.68-13.63,14.63-11.33,31.73-13.85,49.49-13.81,7.84.02,15.62,1.01,23.12,3.43,18.54,5.99,25.63,20.3,27.78,38.23.77,6.46,1.11,12.92,1.11,19.41,0,34.27-.03,68.53.04,102.8,0,4.48.32,8.98.87,13.42,1.32,10.83,5.65,15.22,16.49,16.58,2.9.37,4.41.88,4.29,4.34-.12,3.28-.98,4.21-4.34,4.04-32.93-1.7-65.87-1.66-98.81-.09-2.13.1-4.57.76-4.37-2.84.14-2.55-.75-5.27,3.56-5.53,7.37-.46,11.22-5.1,12.57-12.06.93-4.74,1.34-9.55,1.34-14.38.02-40.92.01-81.84,0-122.76,0-1.99-.12-3.99-.36-5.96-2.12-17.44-16.11-24.25-31.46-15.22-8.82,5.18-13.92,12.89-13.95,23.25-.1,41.09-.06,82.17.03,123.26,0,3.97.54,7.98,1.29,11.88,1.28,6.63,4.88,11.44,12.12,11.91,4.18.27,4.02,2.63,4.05,5.64.03,4.15-2.87,2.87-4.88,2.76-32.61-1.74-65.21-1.3-97.82.04-2.18.09-4.79,1.08-4.67-2.97.09-3.05.02-4.98,4.16-5.4,10.47-1.05,14.17-4.87,16.22-15.1.76-3.78.88-7.59.88-11.42,0-72.36,0-144.72,0-217.08,0-6.51-.47-12.95-2.41-19.22-2.35-7.63-7.46-12.29-15.43-12.78-4.6-.28-3.06-3.13-3.36-5.44-.43-3.33,1.8-2.83,3.8-2.69,27.68,1.85,55.23.85,82.58-3.94,4.62-.81,3.34,2.43,3.34,4.58.05,36.59.03,73.19.03,109.79v6.94Z"/>
    <path class="cls-4" d="M1084.32,120.33c8.18-10.27,18.1-17.53,30.33-21.35,17.71-5.54,35.72-6.22,53.64-1.23,17.04,4.74,25.37,17.13,28.2,33.92,1.64,9.72,2,19.5,2,29.32,0,33.93.02,67.86-.02,101.78,0,3.84.27,7.64,1.02,11.4,1.77,8.89,5.99,12.75,15,14.21,2.08.34,5.18-.68,5.18,3.55,0,3.71-.65,5.21-4.91,4.99-18.61-.99-37.23-1.74-55.87-1.43-13.97.23-27.94.9-41.91,1.3-1.93.06-4.61,1.2-4.57-2.58.03-2.82-.54-5.3,3.77-5.89,7.73-1.06,10.73-4.49,12.41-12.16,1.26-5.74,1.25-11.57,1.26-17.38.05-39.08.04-78.17,0-117.25,0-4.64.05-9.31-1.17-13.87-2.3-8.59-7.13-12.62-15.92-13.12-15.23-.87-28.37,11.19-28.4,26.43-.09,41.41-.04,82.82-.02,124.24,0,3.83.27,7.63,1.14,11.39,1.54,6.65,5.1,11.28,12.3,11.79,4.39.31,3.82,3.1,3.77,5.92-.06,3.74-2.84,2.55-4.72,2.47-17.79-.7-35.58-1.61-53.39-1.29-14.8.27-29.6.88-44.4,1.34-2.28.07-4.78.79-4.74-3.09.03-2.94.15-4.71,3.95-5.25,11.4-1.62,14.66-5.08,16.58-16.49.49-2.93.74-5.95.74-8.92.02-42.24-.02-84.49-.05-126.73,0-4.85-.8-9.62-2.11-14.27-2.17-7.73-6.89-13.06-15.28-13.54-4.24-.24-3.68-2.61-3.79-5.3-.15-3.6,2.24-2.96,4.36-2.83,27.34,1.71,54.54.53,81.57-3.95,3.01-.5,4.22.16,4.11,3.46-.22,6.8-.07,13.62-.07,20.43Z"/>
    <path class="cls-4" d="M889.97,276.09c-13.57,18.04-31.94,24.73-52.98,25.91-9.32.52-18.63.31-27.81-1.9-16.22-3.9-26.72-13.56-30.5-30-2.13-9.27-2.95-18.7-2.95-28.21,0-33.27.02-66.54-.02-99.8,0-7.15-.41-14.29-2.64-21.18-2.38-7.38-7.24-12.01-15.11-12.42-4.46-.23-3.33-3.02-3.5-5.5-.22-3.32,2.07-2.74,4.01-2.62,27.34,1.76,54.55.59,81.58-3.94,4.6-.77,4.32,1.7,4.32,4.74-.04,52.23-.03,104.46-.02,156.69,0,4.83.24,9.58,1.96,14.23,2.3,6.19,6.75,9.31,13.07,9.97,17,1.78,30.38-10.24,30.53-27.74.19-21.29.07-42.58.04-63.87-.03-18.3-.11-36.59-.2-54.89-.03-5.02-.9-9.92-2.42-14.7-2.35-7.37-7.19-12.08-15.1-12.37-4.44-.16-3.4-2.84-3.6-5.35-.3-3.71,2.2-2.9,4.27-2.77,27.34,1.73,54.55.58,81.58-3.97,5.01-.84,4.06,2.31,4.06,5,.01,51.73.02,103.46,0,155.2,0,5.84.5,11.6,1.95,17.29,2.09,8.22,6.68,13.8,15.55,14.48,4.55.35,3.61,3.29,3.6,5.95-.02,3.97-2.83,2.2-4.67,2.11-27.01-1.37-53.93-.64-80.63,3.9-4.07.69-4.48-.7-4.41-3.98.14-6.76.04-13.52.04-20.28Z"/>
    <path class="cls-3" d="M463.92,110.13c-12.24-8.44-31.78-4.11-41.32,8.77-7.84,10.59-11.02,23.07-13.35,35.63-3.98,21.36-4.99,42.89-1.31,64.49,3.67,21.53,17.54,37.62,36.35,40.85,21.64,3.72,38.72-4.62,52.13-21.3,1.74-2.16,3.02-3.53,6.07-2.18,2.32,1.03,3.06,2.04,2.16,4.44-8.21,21.92-20.55,40.75-41.38,52.58-17.97,10.22-37.63,10.54-57.33,7.11-40.42-7.03-64.98-34.01-69.78-76.07-2.55-22.28-2.77-44.49,3.58-66.28,10.28-35.26,34.61-54.92,69.98-61.57,21.3-4.01,42.44-2.62,62.96,4.82,25.46,9.22,38.46,33.91,30.37,57.53-4.77,13.93-17.55,23.08-32.72,23.44-17.08.4-29.26-6.19-34.15-19.79-7.39-20.52,1.11-40.76,22.17-50.21,1.65-.74,3.36-1.37,5.57-2.26Z"/>
    <path class="cls-3" d="M97.3,39.46c0,18.57.13,37.02-.1,55.46-.05,4.16,1.14,5.35,5.27,5.22,9.48-.3,18.98.05,28.47-.17,3.41-.08,3.64,1.49,3.72,4.19.09,2.98-1.12,3.58-3.8,3.55-9.82-.13-19.65.08-29.47-.12-3.32-.07-4.16.98-4.16,4.23.1,50.89.02,101.78.11,152.68.02,12.41,6.56,16.76,18.31,12.7,4.35-1.5,8.31-3.68,11.21-7.18,2.23-2.69,3.61-1.53,5.69-.04,2.29,1.64,2.3,2.95.79,5.22-8.67,13.03-20.23,21.88-35.7,25.25-12.42,2.7-24.84,2.5-37.11-.68-17.57-4.55-28.14-17.53-30.25-36.66-.95-8.6-1.34-17.24-1.35-25.89-.02-41.41-.09-82.82.11-124.24.02-4.54-1.3-5.68-5.61-5.43-6.31.37-12.65-.02-18.98.15-2.97.08-4.39-.37-4.45-3.96-.07-3.99,2.06-3.74,4.69-3.72,6.49.05,13-.18,19.48.09,3.64.15,4.94-.8,4.85-4.67-.26-11.14-.09-22.28-.09-33.43q0-6.75,6.54-6.94c19.02-.52,37.34-4.02,54.49-12.6,2.08-1.04,4.14-2.13,6.21-3.18.12-.06.32.04,1.14.16Z"/>
    <path class="cls-4" d="M1321.38,184.02c0,25.44,0,50.87,0,76.31,0,4.32.12,8.62.91,12.91,1.81,9.79,5.73,13.59,15.71,15.19,2.05.33,4.69-.28,4.7,3.53.02,3.78-.78,5.18-4.97,4.96-18.93-.99-37.89-1.73-56.85-1.43-14.96.24-29.92.88-44.88,1.32-2.04.06-4.5.93-4.49-2.74.01-2.98-.13-5.1,4.03-5.64,11.54-1.5,15.77-6.28,16.87-17.91.23-2.48.34-4.98.34-7.47.02-41.39.02-82.79,0-124.18,0-6.51-.68-12.89-2.93-19.1-2.48-6.85-7.25-10.87-14.36-11.22-4.56-.23-3.87-2.82-3.91-5.61-.06-3.8,2.66-2.62,4.56-2.51,27.16,1.68,54.19.51,81.04-3.97,4.02-.67,4.29,1.08,4.28,4.27-.09,27.76-.05,55.53-.05,83.29Z"/>
    <path class="cls-4" d="M1285.1.4c8.68-.3,17.57.87,25.71,5.15,11.64,6.1,15.92,16.34,15.51,28.98-.4,12.44-5.85,21.88-17.5,26.64-15.56,6.37-31.6,6.47-47.21.38-13.45-5.25-19.29-16.46-18.13-32.18.98-13.27,9.23-23.04,22.44-26.75,6.15-1.73,12.4-2.36,19.18-2.22Z"/>
    <path class="cls-2" d="M219.87,179.75c14.82-.01,29.63,0,44.45,0,14.98,0,29.97-.09,44.95.07,3.3.04,4.26-.99,4.17-4.22-.27-10-1.11-19.92-3.51-29.64-6.64-26.93-22.22-44.81-50.62-49.79-13.29-2.33-26.54-2.1-39.7.34-34.13,6.33-58.4,24.7-69.43,58.36-7.62,23.24-7.45,47.12-4.39,71.07,1.91,14.97,5.98,29.32,14.46,42.05,20.18,30.28,66.25,43.58,101.81,28.66,25.2-10.57,39.1-31.49,48.2-56.19.56-1.51,1.12-2.96-1.11-3.48-2.01-.47-3.91-2.8-6.05.2-4.37,6.15-9.71,11.42-16.16,15.38-27.54,16.89-57.38,7.35-67.1-23.02-4.89-15.28-5-31.08-4.56-46.91.09-3.44,2.49-2.87,4.59-2.87ZM214.08,169.77c1.59-17.68,2.67-35.46,9.4-52.2,1.49-3.7,3.46-7.19,6.37-10.02,6.12-5.96,13.46-5.34,18.18,1.75,4.83,7.24,6.29,15.67,7.52,24.03,1.72,11.66,2.45,23.42,2.45,35.23,0,3.16-1.01,3.95-3.99,3.85-5.98-.21-11.97-.06-17.95-.06-6.32,0-12.63-.03-18.95.02-1.87.02-3.25-.11-3.03-2.6Z"/>
  </g>
  <text class="cls-1" transform="translate(14.29 386.49)"><tspan class="cls-5" x="0" y="0">SMA</tspan><tspan class="cls-7" x="204.52" y="0">R</tspan><tspan class="cls-6" x="264.03" y="0">T TECHNOLOGY SOLUTIONS</tspan></text>
</svg>